<svg xmlns="http://www.w3.org/2000/svg" width="128" height="128" viewBox="0 0 128 128" role="img" aria-label="矿工鹤嘴锄">
  <defs>
    <linearGradient id="bg" x1="0" y1="0" x2="1" y2="1">
      <stop offset="0" stop-color="#2e2218"/>
      <stop offset="1" stop-color="#120c07"/>
    </linearGradient>
    <linearGradient id="head" x1="0" y1="0" x2="0" y2="1">
      <stop offset="0" stop-color="#b8b0a0"/>
      <stop offset="0.5" stop-color="#8a8478"/>
      <stop offset="1" stop-color="#5a564e"/>
    </linearGradient>
    <linearGradient id="headEdge" x1="0" y1="0" x2="1" y2="0">
      <stop offset="0" stop-color="#e0d8c8"/>
      <stop offset="0.5" stop-color="#8a8478"/>
      <stop offset="1" stop-color="#3a3830"/>
    </linearGradient>
    <linearGradient id="haft" x1="0" y1="0" x2="1" y2="0">
      <stop offset="0" stop-color="#8a6b4a"/>
      <stop offset="0.5" stop-color="#6b5138"/>
      <stop offset="1" stop-color="#4a3a28"/>
    </linearGradient>
  </defs>
  <rect width="128" height="128" rx="20" fill="url(#bg)"/>
  <rect x="3" y="3" width="122" height="122" rx="17" fill="none" stroke="#4a3a28" stroke-width="2" opacity="0.6"/>
  <g transform="rotate(45 64 68)">
    <rect x="57" y="22" width="14" height="88" rx="7" fill="url(#haft)"/>
    <rect x="72" y="20" width="4" height="30" rx="2" fill="#c9a36a"/>
    <rect x="52" y="60" width="24" height="6" rx="3" fill="#c9a36a"/>
    <path d="M22 28 Q46 -2 70 28 Q46 20 22 28 Z" fill="url(#head)"/>
    <path d="M22 28 Q46 -2 70 28" stroke="url(#headEdge)" stroke-width="5" fill="none"/>
    <path d="M106 28 Q82 -2 58 28 Q82 20 106 28 Z" fill="url(#head)"/>
    <path d="M106 28 Q82 -2 58 28" stroke="url(#headEdge)" stroke-width="5" fill="none"/>
    <rect x="56" y="24" width="16" height="12" rx="3" fill="#c9a36a" opacity="0.85"/>
  </g>
</svg>
