<svg xmlns="http://www.w3.org/2000/svg" width="64" height="64" viewBox="0 0 64 64">
  <defs>
    <linearGradient id="t" x1="0" y1="0" x2="1" y2="1"><stop offset="0" stop-color="#131c30"/><stop offset="1" stop-color="#060a14"/></linearGradient>
    <linearGradient id="a" x1="0" y1="0" x2="0" y2="1"><stop offset="0" stop-color="#4fd08a"/><stop offset="1" stop-color="#2a8a6a"/></linearGradient>
  </defs>
  <rect width="64" height="64" rx="8" fill="url(#t)"/>
  <path d="M16 26 Q12 14 32 14 Q52 14 48 26 Q50 34 54 38 Q58 42 56 46 Q52 50 44 50 Q40 54 32 54 Q24 54 20 50 Q12 50 8 46 Q6 42 10 38 Q14 34 16 26 Z" fill="none" stroke="url(#a)" stroke-width="2.5" stroke-linejoin="round"/>
  <path d="M18 34 Q32 30 46 34" fill="none" stroke="url(#a)" stroke-width="2.5" stroke-linecap="round"/>
  <circle cx="32" cy="12" r="2.5" fill="#4fd08a"/>
</svg>
